<?xml version="1.0" encoding="UTF-8"?>
<svg version="1.1" xmlns="http://www.w3.org/2000/svg" width="64" height="64">
<path d="M0 0 C8.81047514 5.19434969 14.48814942 12.48996989 17.24609375 22.32421875 C18.35744167 33.23093555 16.98391131 42.04985827 9.99609375 50.63671875 C4.23467963 56.74357098 -2.59763992 60.7988172 -11.05078125 61.66015625 C-22.03447975 61.78440623 -29.89682524 59.89481336 -38 52.25 C-45.14911627 44.40030218 -47.25042115 36.36475729 -47.0625 25.86328125 C-46.28781843 16.97895848 -42.28940188 10.27642471 -35.75390625 4.32421875 C-25.35703865 -3.57900943 -12.05437228 -5.6412087 0 0 Z " fill="#F0B90E" transform="translate(46.75390625,2.67578125)"/>
<path d="M0 0 C0.886875 0.515625 1.77375 1.03125 2.6875 1.5625 C6.30695176 3.13320548 7.35721066 3.21426311 11 2 C11.86625 1.608125 12.7325 1.21625 13.625 0.8125 C14.40875 0.544375 15.1925 0.27625 16 0 C16.99 0.66 17.98 1.32 19 2 C19.1875 5.125 19.1875 5.125 19 8 C18.030625 8.309375 17.06125 8.61875 16.0625 8.9375 C12.84127384 10.60613975 12.84127384 10.60613975 12.484375 13.1328125 C12.37118931 14.73284658 12.30868279 16.33739328 12.30078125 17.94140625 C12.20152344 18.62074219 12.10226563 19.30007812 12 20 C9 22 9 22 6.875 21.6875 C5 21 5 21 4 20 C3.9071875 18.1128125 3.9071875 18.1128125 3.8125 16.1875 C3.65469428 13.9980781 3.65469428 13.9980781 3 12 C1.02514795 10.6296945 -0.97386717 9.29327628 -3 8 C-3.5625 4.875 -3.5625 4.875 -3 2 C-2.01 1.34 -1.02 0.68 0 0 Z " fill="#FEFEFB" transform="translate(24,23)"/>
<path d="M0 0 C2.475 0.99 2.475 0.99 5 2 C5 4.97 5 7.94 5 11 C5.78375 11.309375 6.5675 11.61875 7.375 11.9375 C10 13 10 13 12 14 C12 15.65 12 17.3 12 19 C10.02 18.34 8.04 17.68 6 17 C6 16.34 6 15.68 6 15 C5.071875 14.7834375 5.071875 14.7834375 4.125 14.5625 C2 14 2 14 0 13 C0 8.71 0 4.42 0 0 Z " fill="#FDF8E7" transform="translate(13,30)"/>
<path d="M0 0 C2.02237052 0.95394836 4.0282696 1.94535351 6 3 C6 3.66 6 4.32 6 5 C6.66 5.33 7.32 5.66 8 6 C4.41834689 6.85277455 2.40861628 7.13892953 -1.125 5.9375 C-3.89364906 4.67195566 -3.89364906 4.67195566 -6 5.9375 C-6.99 6.4634375 -6.99 6.4634375 -8 7 C-11.25 6.625 -11.25 6.625 -14 6 C-9.787414 1.4753706 -6.35350451 -2.16948934 0 0 Z " fill="#FEFBF2" transform="translate(35,12)"/>
<path d="M0 0 C0.53466319 4.44892584 0.79287006 8.57357974 0 13 C-2.574868 15.92858724 -5.38935038 17.57268544 -9 19 C-9.66 19 -10.32 19 -11 19 C-11.3125 16.6875 -11.3125 16.6875 -11 14 C-8.6167054 12.18116991 -7.04181663 11 -4 11 C-4.03480469 10.37351562 -4.06960937 9.74703125 -4.10546875 9.1015625 C-4.13253906 8.28429688 -4.15960938 7.46703125 -4.1875 6.625 C-4.22230469 5.81289063 -4.25710937 5.00078125 -4.29296875 4.1640625 C-4.19628906 3.44992188 -4.09960938 2.73578125 -4 2 C-1 0 -1 0 0 0 Z " fill="#FEFDF8" transform="translate(50,30)"/>
<path d="M0 0 C0.86625 0.556875 0.86625 0.556875 1.75 1.125 C1.069375 1.74375 1.069375 1.74375 0.375 2.375 C-1.30950374 4.18908095 -2.24265971 5.87785627 -3.25 8.125 C-4.24 7.795 -5.23 7.465 -6.25 7.125 C-6.25 5.145 -6.25 3.165 -6.25 1.125 C-2.80384615 -1.09038462 -2.80384615 -1.09038462 0 0 Z " fill="#FDFAEE" transform="translate(19.25,19.875)"/>
<path d="M0 0 C2.475 0.99 2.475 0.99 5 2 C5 3.98 5 5.96 5 8 C3.02 8.99 3.02 8.99 1 10 C1 8.02 1 6.04 1 4 C0.01 4 -0.98 4 -2 4 C-1.34 2.68 -0.68 1.36 0 0 Z " fill="#FEFAF0" transform="translate(45,19)"/>
<path d="M0 0 C2.475 0.99 2.475 0.99 5 2 C5 1.34 5 0.68 5 0 C5.99 0 6.98 0 8 0 C7.67 1.65 7.34 3.3 7 5 C4.625 5.625 4.625 5.625 2 6 C1.34 5.34 0.68 4.68 0 4 C0 2.68 0 1.36 0 0 Z " fill="#FEFCF8" transform="translate(28,47)"/>
<path d="M0 0 C0 1.65 0 3.3 0 5 C-0.66 5 -1.32 5 -2 5 C-2 5.66 -2 6.32 -2 7 C-2.66 7 -3.32 7 -4 7 C-4.1875 4.625 -4.1875 4.625 -4 2 C-1 0 -1 0 0 0 Z " fill="#FEFAEF" transform="translate(43,34)"/>
<path d="M0 0 C1.32 0.33 2.64 0.66 4 1 C4 2.65 4 4.3 4 6 C2.68 5.34 1.36 4.68 0 4 C0 2.68 0 1.36 0 0 Z " fill="#FDFAEE" transform="translate(21,35)"/>
<path d="M0 0 C2.125 0.9375 2.125 0.9375 4 2 C4 2.66 4 3.32 4 4 C2.02 4 0.04 4 -2 4 C-2 3.01 -2 2.02 -2 1 C-1.34 0.67 -0.68 0.34 0 0 Z " fill="#FDF9EC" transform="translate(31,19)"/>
</svg>
